<svg width="28" height="28" viewBox="0 0 28 28" fill="none" xmlns="http://www.w3.org/2000/svg">
<path d="M7 3.5H21C21.9283 3.5 22.8185 3.86875 23.4749 4.52513C24.1313 5.1815 24.5 6.07174 24.5 7V21C24.5 21.9283 24.1313 22.8185 23.4749 23.4749C22.8185 24.1313 21.9283 24.5 21 24.5H7C6.07174 24.5 5.1815 24.1313 4.52513 23.4749C3.86875 22.8185 3.5 21.9283 3.5 21V7C3.5 6.07174 3.86875 5.1815 4.52513 4.52513C5.1815 3.86875 6.07174 3.5 7 3.5ZM7 5.83333C6.69058 5.83333 6.39383 5.95625 6.17504 6.17504C5.95625 6.39383 5.83333 6.69058 5.83333 7V21C5.83333 21.3094 5.95625 21.6062 6.17504 21.825C6.39383 22.0438 6.69058 22.1667 7 22.1667H21C21.3094 22.1667 21.6062 22.0438 21.825 21.825C22.0438 21.6062 22.1667 21.3094 22.1667 21V7C22.1667 6.69058 22.0438 6.39383 21.825 6.17504C21.6062 5.95625 21.3094 5.83333 21 5.83333H7Z" fill="#2C2C2C"/>
<rect x="5.83334" y="5.83333" width="16.3333" height="16.3333" fill="#FF5F5F"/>
<path d="M11.5718 15.9966L8.37339 12.8875L7 14.2225L11.5718 18.6667L21 9.50171L19.6266 8.16667L11.5718 15.9966Z" fill="#2C2C2C"/>
</svg>
